# xmcd
#
# Track frame offsets: 
#        150
#        18173
#        36190
#        56555
#        81302
#        96462
#        117160
#        132260
#        152459
#        174775
#        193538
#        214293
#
# Disc length: 3105 seconds
#
# Revision: 4
# Processed by: cddbd v1.5.2PL0 Copyright (c) Steve Scherf et al.
# Submitted via: ExactAudioCopyFreeDBPlugin 1.0
#
DISCID=990c1f0c
DTITLE=葉加瀬太郎 - WITH ONE WISH
DYEAR=2012
DGENRE=Classical
TTITLE0=WITH ONE WISH
TTITLE1=Back to our home
TTITLE2=シシリアンセレナーデ
TTITLE3=ARAB EXPRESS
TTITLE4=上島町のうた
TTITLE5=Prep!
TTITLE6=PRECIOUS TIME
TTITLE7=Invitations
TTITLE8=ZERO HOUR
TTITLE9=希望の風
TTITLE10=MY HOMETOWN
TTITLE11=Someone To Watch Over Me
EXTD=YEAR: 2012
EXTT0=
EXTT1=
EXTT2=
EXTT3=
EXTT4=
EXTT5=
EXTT6=
EXTT7=
EXTT8=
EXTT9=
EXTT10=
EXTT11=
PLAYORDER=
